<svg version="1.1" viewBox="0.0 0.0 270.6456692913386 128.29133858267716" fill="none" stroke="none" stroke-linecap="square" stroke-miterlimit="10" xmlns:xlink="http://www.w3.org/1999/xlink" xmlns="http://www.w3.org/2000/svg"><clipPath id="p.0"><path d="m0 0l270.64566 0l0 128.29134l-270.64566 0l0 -128.29134z" clip-rule="nonzero"/></clipPath><g clip-path="url(#p.0)"><path fill="#000000" fill-opacity="0.0" d="m0 0l270.64566 0l0 128.29134l-270.64566 0z" fill-rule="evenodd"/><path fill="#000000" fill-opacity="0.0" d="m5.296588 -19.383202l270.36218 0l0 132.59842l-270.36218 0z" fill-rule="evenodd"/><path fill="#3498db" d="m48.76534 54.995544q0 -6.921875 -1.78125 -9.796875q-1.78125 -2.875 -6.09375 -2.875q-1.34375 0 -2.78125 0.140625q-1.4375 0.140625 -2.78125 0.34375l0 38.96875l-14.312502 0l0 -48.765625q1.828125 -0.484375 4.265625 -1.0q2.453125 -0.53125 5.1875 -0.96875q2.734377 -0.4375 5.609377 -0.671875q2.890625 -0.234375 5.671875 -0.234375q5.46875 0 8.875 1.390625q3.421875 1.390625 5.625 3.3125q3.078125 -2.21875 7.046875 -3.453125q3.9843712 -1.25 7.359371 -1.25q6.046875 0 9.921875 1.6875q3.890625 1.671875 6.1875 4.75q2.3125 3.0625 3.171875 7.28125q0.875 4.21875 0.875 9.40625l0 28.515625l-14.3125 0l0 -26.78125q0 -6.921875 -1.78125 -9.796875q-1.765625 -2.875 -6.078125 -2.875q-1.15625 0 -3.21875 0.578125q-2.0624962 0.578125 -3.4062462 1.4375q0.671875 2.203125 0.859375 4.65625q0.1875 2.4375 0.1875 5.234375l0 27.546875l-14.296875 0l0 -26.78125zm75.15822 27.734375q-6.234375 -0.09375 -10.125 -1.328125q-3.890625 -1.25 -6.140625 -3.5q-2.25 -2.265625 -3.078125 -5.484375q-0.8125 -3.21875 -0.8125 -7.25l0 -55.578125l14.3125 -2.3124995l0 55.015625q0 1.921875 0.28125 3.453125q0.28125 1.53125 1.09375 2.59375q0.828125 1.046875 2.359375 1.71875q1.53125 0.671875 4.125 0.875l-2.015625 11.796875zm5.4766083 16.8125q-1.34375 0 -3.984375 -0.296875q-2.640625 -0.28125 -4.9375 -1.046875l1.921875 -11.625q1.4375 0.484375 2.640625 0.671875q1.1875 0.1875 3.015625 0.1875q3.359375 0 4.703125 -2.015625q1.34375 -2.015625 1.34375 -5.84375l0 -48.296875l14.3125 0l0 48.671875q0 9.984375 -4.90625 14.78125q-4.890625 4.8125 -14.109375 4.8125zm20.359375 -82.859375q0 3.9375 -2.546875 6.203125q-2.546875 2.25 -6.0 2.25q-3.453125 0 -6.0 -2.25q-2.546875 -2.265625 -2.546875 -6.203125q0 -3.937501 2.546875 -6.187501q2.546875 -2.25 6.0 -2.25q3.453125 0 6.0 2.25q2.546875 2.25 2.546875 6.187501zm31.384613 55.109375q2.109375 0 4.03125 -0.09375q1.921875 -0.09375 3.078125 -0.296875l0 -10.84375q-0.875 -0.1875 -2.609375 -0.375q-1.71875 -0.203125 -3.15625 -0.203125q-2.015625 0 -3.796875 0.25q-1.765625 0.234375 -3.109375 0.90625q-1.34375 0.671875 -2.125 1.828125q-0.765625 1.15625 -0.765625 2.875q0 3.359375 2.25 4.65625q2.265625 1.296875 6.203125 1.296875zm-1.15625 -41.859375q6.34375 0 10.5625 1.453125q4.21875 1.4375 6.765625 4.125q2.546875 2.6875 3.59375 6.53125q1.0625 3.828125 1.0625 8.53125l0 29.765625q-3.0625 0.671875 -8.546875 1.578125q-5.46875 0.921875 -13.234375 0.921875q-4.90625 0 -8.890625 -0.875q-3.984375 -0.859375 -6.859375 -2.828125q-2.875 -1.96875 -4.421875 -5.125q-1.53125 -3.171875 -1.53125 -7.78125q0 -4.421875 1.765625 -7.484375q1.78125 -3.078125 4.75 -4.90625q2.984375 -1.828125 6.828125 -2.640625q3.84375 -0.8125 7.96875 -0.8125q2.78125 0 4.9375 0.25q2.171875 0.234375 3.515625 0.609375l0 -1.34375q0 -3.640625 -2.21875 -5.84375q-2.203125 -2.21875 -7.671875 -2.21875q-3.65625 0 -7.203125 0.53125q-3.546875 0.53125 -6.140625 1.484375l-1.828125 -11.515625q1.25 -0.390625 3.125 -0.8125q1.875 -0.4375 4.078125 -0.765625q2.203125 -0.34375 4.65625 -0.578125q2.453125 -0.25 4.9375 -0.25zm65.38486 14.015625q-1.921875 -0.46875 -4.515625 -1.0q-2.59375 -0.53125 -5.5625 -0.53125q-1.34375 0 -3.21875 0.25q-1.875 0.234375 -2.828125 0.515625l0 38.59375l-14.3125 0l0 -47.8125q3.84375 -1.34375 9.078125 -2.53125q5.234375 -1.203125 11.65625 -1.203125q1.15625 0 2.78125 0.140625q1.640625 0.140625 3.265625 0.390625q1.640625 0.234375 3.265625 0.578125q1.640625 0.328125 2.78125 0.8125l-2.390625 11.796875z" fill-rule="nonzero"/><path fill="#000000" fill-opacity="0.0" d="m-6.929134 91.6273l321.88977 0l0 25.354332l-321.88977 0z" fill-rule="evenodd"/><path fill="#3498db" d="m6.992741 105.62542q0.34375 0.609375 0.78125 1.515625q0.43750048 0.90625 0.9062505 1.96875q0.484375 1.046875 0.9375 2.15625q0.46875 1.09375 0.890625 2.0625q0.40625 -0.96875 0.875 -2.0625q0.46875 -1.109375 0.9375 -2.15625q0.484375 -1.0625 0.921875 -1.96875q0.4375 -0.90625 0.765625 -1.515625l2.656249 0q0.1875 1.28125 0.34375 2.875q0.15625 1.59375 0.265625 3.328125q0.125 1.71875 0.234375 3.453125q0.109375 1.734375 0.171875 3.265625l-2.828124 0q-0.0625 -1.890625 -0.15625 -4.109375q-0.09375 -2.21875 -0.28125 -4.46875q-0.328125 0.78125 -0.75 1.734375q-0.40625 0.953125 -0.8125 1.90625q-0.390625 0.9375 -0.765625 1.8125q-0.375 0.875 -0.625 1.484375l-2.046875 0q-0.25 -0.609375 -0.625 -1.484375q-0.375 -0.875 -0.78125 -1.8125q-0.39062548 -0.953125 -0.8125005 -1.90625q-0.40625 -0.953125 -0.734375 -1.734375q-0.1875 2.25 -0.28125 4.46875q-0.09375 2.21875 -0.15625 4.109375l-2.828125 0q0.0625 -1.53125 0.171875 -3.265625q0.109375 -1.734375 0.21875 -3.453125q0.125 -1.734375 0.28125 -3.328125q0.15625 -1.59375 0.34375 -2.875l2.78125 0zm16.87529 10.984375q0.40625 0 0.78125 -0.015625q0.375 -0.03125 0.59375 -0.0625l0 -2.109375q-0.171875 -0.03125 -0.515625 -0.0625q-0.328125 -0.046875 -0.609375 -0.046875q-0.390625 0 -0.734375 0.046875q-0.34375 0.046875 -0.609375 0.1875q-0.25 0.125 -0.40625 0.34375q-0.140625 0.21875 -0.140625 0.5625q0 0.65625 0.4375 0.90625q0.4375 0.25 1.203125 0.25zm-0.234375 -8.140625q1.234375 0 2.046875 0.28125q0.828125 0.28125 1.3125 0.8125q0.5 0.515625 0.703125 1.265625q0.21875 0.734375 0.21875 1.65625l0 5.78125q-0.609375 0.125 -1.671875 0.296875q-1.0625 0.1875 -2.5625 0.1875q-0.953125 0 -1.734375 -0.171875q-0.765625 -0.15625 -1.328125 -0.53125q-0.5625 -0.390625 -0.859375 -1.0q-0.296875 -0.625 -0.296875 -1.515625q0 -0.859375 0.34375 -1.453125q0.34375 -0.609375 0.921875 -0.953125q0.578125 -0.359375 1.328125 -0.515625q0.75 -0.15625 1.546875 -0.15625q0.53125 0 0.953125 0.046875q0.421875 0.046875 0.6875 0.109375l0 -0.25q0 -0.71875 -0.4375 -1.140625q-0.421875 -0.4375 -1.484375 -0.4375q-0.703125 0 -1.40625 0.109375q-0.6875 0.09375 -1.1875 0.28125l-0.359375 -2.234375q0.25 -0.078125 0.609375 -0.15625q0.359375 -0.078125 0.78125 -0.140625q0.4375 -0.078125 0.90625 -0.125q0.484375 -0.046875 0.96875 -0.046875zm6.332535 5.171875q0 -1.0625 0.34375 -2.0q0.34375 -0.953125 0.984375 -1.640625q0.65625 -0.703125 1.59375 -1.109375q0.9375 -0.421875 2.125 -0.421875q0.78125 0 1.4375 0.140625q0.65625 0.140625 1.265625 0.40625l-0.578125 2.21875q-0.390625 -0.15625 -0.859375 -0.265625q-0.453125 -0.109375 -1.03125 -0.109375q-1.234375 0 -1.84375 0.765625q-0.609375 0.765625 -0.609375 2.015625q0 1.328125 0.5625 2.0625q0.578125 0.71875 2.0 0.71875q0.5 0 1.078125 -0.09375q0.578125 -0.09375 1.0625 -0.296875l0.390625 2.265625q-0.484375 0.21875 -1.21875 0.359375q-0.71875 0.15625 -1.59375 0.15625q-1.34375 0 -2.3125 -0.40625q-0.96875 -0.40625 -1.59375 -1.09375q-0.625 -0.6875 -0.921875 -1.625q-0.28125 -0.953125 -0.28125 -2.046875zm9.796875 4.90625l0 -14.03125l2.765625 -0.453125l0 4.703125q0.28125 -0.09375 0.71875 -0.171875q0.453125 -0.078125 0.859375 -0.078125q1.1875 0 1.984375 0.328125q0.796875 0.3125 1.265625 0.921875q0.484375 0.59375 0.671875 1.421875q0.203125 0.8125 0.203125 1.8125l0 5.546875l-2.78125 0l0 -5.203125q0 -1.34375 -0.34375 -1.90625q-0.34375 -0.5625 -1.28125 -0.5625q-0.375 0 -0.703125 0.078125q-0.328125 0.0625 -0.59375 0.125l0 7.46875l-2.765625 0zm13.754166 0l-2.765625 0l0 -9.8125l2.765625 0l0 9.8125zm0.265625 -12.65625q0 0.765625 -0.5 1.21875q-0.484375 0.4375 -1.15625 0.4375q-0.671875 0 -1.171875 -0.4375q-0.484375 -0.453125 -0.484375 -1.21875q0 -0.75 0.484375 -1.1875q0.5 -0.453125 1.171875 -0.453125q0.671875 0 1.15625 0.453125q0.5 0.4375 0.5 1.1875zm2.3604126 3.171875q0.703125 -0.203125 1.8125 -0.375q1.125 -0.171875 2.359375 -0.171875q1.25 0 2.078125 0.328125q0.828125 0.3125 1.3125 0.921875q0.4843788 0.59375 0.6875038 1.421875q0.21875 0.8125 0.21875 1.8125l0 5.546875l-2.7812538 0l0 -5.203125q0 -1.34375 -0.359375 -1.90625q-0.359375 -0.5625 -1.328125 -0.5625q-0.296875 0 -0.640625 0.03125q-0.328125 0.03125 -0.59375 0.0625l0 7.578125l-2.765625 0l0 -9.484375zm10.519794 4.65625q0 -1.3125 0.390625 -2.28125q0.40625 -0.984375 1.0625 -1.640625q0.65625 -0.65625 1.5 -0.984375q0.84375 -0.34375 1.75 -0.34375q2.078125 0 3.296875 1.28125q1.21875 1.28125 1.21875 3.765625q0 0.234375 -0.03125 0.53125q-0.015625 0.28125 -0.03125 0.5l-6.3125 0q0.09375 0.859375 0.796875 1.375q0.71875 0.5 1.921875 0.5q0.75 0 1.484375 -0.140625q0.75 -0.140625 1.21875 -0.34375l0.375 2.25q-0.234375 0.109375 -0.609375 0.234375q-0.375 0.109375 -0.828125 0.1875q-0.453125 0.09375 -0.984375 0.140625q-0.515625 0.0625 -1.03125 0.0625q-1.328125 0 -2.3125 -0.390625q-0.96875 -0.390625 -1.625 -1.078125q-0.640625 -0.6875 -0.953125 -1.609375q-0.296875 -0.9375 -0.296875 -2.015625zm6.53125 -1.0625q-0.03125 -0.359375 -0.140625 -0.6875q-0.09375 -0.34375 -0.3125 -0.59375q-0.203125 -0.265625 -0.53125 -0.4375q-0.328125 -0.171875 -0.8125 -0.171875q-0.46875 0 -0.8125 0.15625q-0.328125 0.15625 -0.546875 0.421875q-0.21875 0.265625 -0.34375 0.609375q-0.125 0.34375 -0.1875 0.703125l3.6875 0zm18.122757 3.390625l0 2.5l-8.625 0l0 -12.921875l2.90625 0l0 10.421875l5.71875 0zm1.2222137 -2.328125q0 -1.3125 0.390625 -2.28125q0.40625 -0.984375 1.0625 -1.640625q0.65625 -0.65625 1.5 -0.984375q0.84375 -0.34375 1.75 -0.34375q2.078125 0 3.296875 1.28125q1.21875 1.28125 1.21875 3.765625q0 0.234375 -0.03125 0.53125q-0.015625 0.28125 -0.03125 0.5l-6.3125 0q0.09375 0.859375 0.796875 1.375q0.71875 0.5 1.921875 0.5q0.75 0 1.484375 -0.140625q0.75 -0.140625 1.21875 -0.34375l0.375 2.25q-0.234375 0.109375 -0.609375 0.234375q-0.375 0.109375 -0.828125 0.1875q-0.453125 0.09375 -0.984375 0.140625q-0.515625 0.0625 -1.03125 0.0625q-1.328125 0 -2.3125 -0.390625q-0.96875 -0.390625 -1.625 -1.078125q-0.640625 -0.6875 -0.953125 -1.609375q-0.296875 -0.9375 -0.296875 -2.015625zm6.53125 -1.0625q-0.03125 -0.359375 -0.140625 -0.6875q-0.09375 -0.34375 -0.3125 -0.59375q-0.203125 -0.265625 -0.53125 -0.4375q-0.328125 -0.171875 -0.8125 -0.171875q-0.46875 0 -0.8125 0.15625q-0.328125 0.15625 -0.546875 0.421875q-0.21875 0.265625 -0.34375 0.609375q-0.125 0.34375 -0.1875 0.703125l3.6875 0zm8.582748 3.953125q0.40625 0 0.78125 -0.015625q0.375 -0.03125 0.59375 -0.0625l0 -2.109375q-0.171875 -0.03125 -0.515625 -0.0625q-0.328125 -0.046875 -0.609375 -0.046875q-0.390625 0 -0.734375 0.046875q-0.34375 0.046875 -0.609375 0.1875q-0.25 0.125 -0.40625 0.34375q-0.140625 0.21875 -0.140625 0.5625q0 0.65625 0.4375 0.90625q0.4375 0.25 1.203125 0.25zm-0.234375 -8.140625q1.234375 0 2.046875 0.28125q0.828125 0.28125 1.3125 0.8125q0.5 0.515625 0.703125 1.265625q0.21875 0.734375 0.21875 1.65625l0 5.78125q-0.609375 0.125 -1.671875 0.296875q-1.0625 0.1875 -2.5625 0.1875q-0.953125 0 -1.734375 -0.171875q-0.765625 -0.15625 -1.328125 -0.53125q-0.5625 -0.390625 -0.859375 -1.0q-0.296875 -0.625 -0.296875 -1.515625q0 -0.859375 0.34375 -1.453125q0.34375 -0.609375 0.921875 -0.953125q0.578125 -0.359375 1.328125 -0.515625q0.75 -0.15625 1.546875 -0.15625q0.53125 0 0.953125 0.046875q0.421875 0.046875 0.6875 0.109375l0 -0.25q0 -0.71875 -0.4375 -1.140625q-0.421875 -0.4375 -1.484375 -0.4375q-0.703125 0 -1.40625 0.109375q-0.6875 0.09375 -1.1875 0.28125l-0.359375 -2.234375q0.25 -0.078125 0.609375 -0.15625q0.359375 -0.078125 0.78125 -0.140625q0.4375 -0.078125 0.90625 -0.125q0.484375 -0.046875 0.96875 -0.046875zm12.707535 2.734375q-0.375 -0.09375 -0.875 -0.203125q-0.5 -0.109375 -1.078125 -0.109375q-0.265625 0 -0.640625 0.046875q-0.359375 0.046875 -0.546875 0.109375l0 7.5l-2.765625 0l0 -9.296875q0.734375 -0.25 1.75 -0.484375q1.015625 -0.234375 2.265625 -0.234375q0.234375 0 0.546875 0.03125q0.3125 0.015625 0.625 0.0625q0.328125 0.046875 0.640625 0.125q0.328125 0.0625 0.546875 0.15625l-0.46875 2.296875zm1.9666901 -2.140625q0.703125 -0.203125 1.8125 -0.375q1.125 -0.171875 2.359375 -0.171875q1.25 0 2.0781174 0.328125q0.828125 0.3125 1.3125 0.921875q0.484375 0.59375 0.6875 1.421875q0.21875 0.8125 0.21875 1.8125l0 5.546875l-2.7812424 0l0 -5.203125q0 -1.34375 -0.359375 -1.90625q-0.359375 -0.5625 -1.328125 -0.5625q-0.296875 0 -0.640625 0.03125q-0.328125 0.03125 -0.59375 0.0625l0 7.578125l-2.765625 0l0 -9.484375zm13.754158 9.484375l-2.765625 0l0 -9.8125l2.765625 0l0 9.8125zm0.265625 -12.65625q0 0.765625 -0.5 1.21875q-0.484375 0.4375 -1.15625 0.4375q-0.671875 0 -1.171875 -0.4375q-0.484375 -0.453125 -0.484375 -1.21875q0 -0.75 0.484375 -1.1875q0.5 -0.453125 1.171875 -0.453125q0.671875 0 1.15625 0.453125q0.5 0.4375 0.5 1.1875zm2.3604126 3.171875q0.703125 -0.203125 1.8125 -0.375q1.125 -0.171875 2.359375 -0.171875q1.25 0 2.078125 0.328125q0.828125 0.3125 1.3125 0.921875q0.484375 0.59375 0.6875 1.421875q0.21875 0.8125 0.21875 1.8125l0 5.546875l-2.78125 0l0 -5.203125q0 -1.34375 -0.359375 -1.90625q-0.359375 -0.5625 -1.328125 -0.5625q-0.296875 0 -0.640625 0.03125q-0.328125 0.03125 -0.59375 0.0625l0 7.578125l-2.765625 0l0 -9.484375zm13.347916 4.265625q0 2.328125 1.890625 2.328125q0.421875 0 0.796875 -0.109375q0.375 -0.109375 0.640625 -0.265625l0 -4.4375q-0.203125 -0.046875 -0.484375 -0.0625q-0.28125 -0.03125 -0.65625 -0.03125q-1.109375 0 -1.65625 0.734375q-0.53125 0.71875 -0.53125 1.84375zm6.109375 3.984375q0 2.40625 -1.234375 3.5625q-1.21875 1.171875 -3.765625 1.171875q-0.90625 0 -1.796875 -0.15625q-0.890625 -0.15625 -1.65625 -0.421875l0.484375 -2.328125q0.65625 0.265625 1.375 0.40625q0.71875 0.15625 1.625 0.15625q1.1875 0 1.6875 -0.53125q0.5 -0.515625 0.5 -1.328125l0 -0.359375q-0.453125 0.203125 -0.9375 0.3125q-0.46875 0.09375 -1.03125 0.09375q-2.03125 0 -3.109375 -1.203125q-1.078125 -1.203125 -1.078125 -3.359375q0 -1.09375 0.328125 -1.96875q0.34375 -0.890625 0.984375 -1.515625q0.640625 -0.640625 1.578125 -0.984375q0.9375 -0.34375 2.109375 -0.34375q0.5 0 1.03125 0.046875q0.53125 0.046875 1.046875 0.125q0.53125 0.0625 1.0 0.171875q0.484375 0.09375 0.859375 0.203125l0 8.25zm11.340576 -13.25q0.78125 0 1.4375 0.171875q0.65625 0.15625 1.0 0.296875l-0.53125 2.21875q-0.375 -0.15625 -0.8125 -0.234375q-0.4375 -0.09375 -0.8125 -0.09375q-0.515625 0 -0.859375 0.140625q-0.34375 0.140625 -0.546875 0.390625q-0.1875 0.234375 -0.28125 0.578125q-0.078125 0.328125 -0.078125 0.71875l0 0.484375l3.4375 0l0 2.3125l-3.4375 0l0 7.5l-2.765625 0l0 -10.328125q0 -1.90625 1.0625 -3.03125q1.078125 -1.125 3.1875 -1.125zm12.794815 9.5625q0 1.15625 -0.34375 2.125q-0.328125 0.953125 -0.96875 1.640625q-0.625 0.671875 -1.515625 1.046875q-0.890625 0.375 -1.984375 0.375q-1.078125 0 -1.96875 -0.375q-0.890625 -0.375 -1.53125 -1.046875q-0.625 -0.6875 -0.984375 -1.640625q-0.34375 -0.96875 -0.34375 -2.125q0 -1.15625 0.359375 -2.109375q0.359375 -0.953125 1.0 -1.625q0.65625 -0.671875 1.53125 -1.046875q0.890625 -0.375 1.9375 -0.375q1.0625 0 1.9375 0.375q0.890625 0.375 1.53125 1.046875q0.640625 0.671875 0.984375 1.625q0.359375 0.953125 0.359375 2.109375zm-2.828125 0q0 -1.296875 -0.515625 -2.03125q-0.515625 -0.734375 -1.46875 -0.734375q-0.953125 0 -1.484375 0.734375q-0.515625 0.734375 -0.515625 2.03125q0 1.28125 0.515625 2.046875q0.53125 0.75 1.484375 0.75q0.953125 0 1.46875 -0.75q0.515625 -0.765625 0.515625 -2.046875zm10.886841 -2.421875q-0.375 -0.09375 -0.875 -0.203125q-0.5 -0.109375 -1.078125 -0.109375q-0.265625 0 -0.640625 0.046875q-0.359375 0.046875 -0.546875 0.109375l0 7.5l-2.765625 0l0 -9.296875q0.734375 -0.25 1.75 -0.484375q1.015625 -0.234375 2.265625 -0.234375q0.234375 0 0.546875 0.03125q0.3125 0.015625 0.625 0.0625q0.328125 0.046875 0.640625 0.125q0.328125 0.0625 0.546875 0.15625l-0.46875 2.296875zm14.428574 -5.578125l2.90625 0l0 12.921875l-2.90625 0l0 -5.484375l-4.890625 0l0 5.484375l-2.90625 0l0 -12.921875l2.90625 0l0 4.9375l4.890625 0l0 -4.9375zm14.08432 12.59375q-0.71875 0.203125 -1.84375 0.375q-1.109375 0.171875 -2.34375 0.171875q-1.25 0 -2.078125 -0.328125q-0.828125 -0.34375 -1.3125 -0.9375q-0.484375 -0.609375 -0.6875 -1.453125q-0.203125 -0.84375 -0.203125 -1.84375l0 -5.46875l2.78125 0l0 5.125q0 1.34375 0.34375 1.953125q0.359375 0.59375 1.328125 0.59375q0.296875 0 0.625 -0.03125q0.34375 -0.03125 0.609375 -0.0625l0 -7.578125l2.78125 0l0 9.484375zm8.004166 -4.875q0 -1.34375 -0.359375 -1.90625q-0.34375 -0.5625 -1.171875 -0.5625q-0.265625 0 -0.546875 0.03125q-0.28125 0.03125 -0.546875 0.0625l0 7.578125l-2.765625 0l0 -9.484375q0.34375 -0.09375 0.8125 -0.1875q0.484375 -0.109375 1.015625 -0.1875q0.53125 -0.078125 1.09375 -0.125q0.5625 -0.046875 1.09375 -0.046875q1.078125 0 1.734375 0.265625q0.65625 0.265625 1.09375 0.640625q0.59375 -0.421875 1.359375 -0.65625q0.78125 -0.25 1.4375 -0.25q1.171875 0 1.921875 0.328125q0.765625 0.3125 1.203125 0.921875q0.453125 0.59375 0.625 1.421875q0.171875 0.8125 0.171875 1.8125l0 5.546875l-2.78125 0l0 -5.203125q0 -1.34375 -0.34375 -1.90625q-0.34375 -0.5625 -1.1875 -0.5625q-0.234375 0 -0.640625 0.125q-0.390625 0.109375 -0.65625 0.265625q0.140625 0.4375 0.171875 0.921875q0.046875 0.46875 0.046875 1.0l0 5.359375l-2.78125 0l0 -5.203125zm14.441071 3.265625q0.40625 0 0.78125 -0.015625q0.375 -0.03125 0.59375 -0.0625l0 -2.109375q-0.171875 -0.03125 -0.515625 -0.0625q-0.328125 -0.046875 -0.609375 -0.046875q-0.390625 0 -0.734375 0.046875q-0.34375 0.046875 -0.609375 0.1875q-0.25 0.125 -0.40625 0.34375q-0.140625 0.21875 -0.140625 0.5625q0 0.65625 0.4375 0.90625q0.4375 0.25 1.203125 0.25zm-0.234375 -8.140625q1.234375 0 2.046875 0.28125q0.828125 0.28125 1.3125 0.8125q0.5 0.515625 0.703125 1.265625q0.21875 0.734375 0.21875 1.65625l0 5.78125q-0.609375 0.125 -1.671875 0.296875q-1.0625 0.1875 -2.5625 0.1875q-0.953125 0 -1.734375 -0.171875q-0.765625 -0.15625 -1.328125 -0.53125q-0.5625 -0.390625 -0.859375 -1.0q-0.296875 -0.625 -0.296875 -1.515625q0 -0.859375 0.34375 -1.453125q0.34375 -0.609375 0.921875 -0.953125q0.578125 -0.359375 1.328125 -0.515625q0.75 -0.15625 1.546875 -0.15625q0.53125 0 0.953125 0.046875q0.421875 0.046875 0.6875 0.109375l0 -0.25q0 -0.71875 -0.4375 -1.140625q-0.421875 -0.4375 -1.484375 -0.4375q-0.703125 0 -1.40625 0.109375q-0.6875 0.09375 -1.1875 0.28125l-0.359375 -2.234375q0.25 -0.078125 0.609375 -0.15625q0.359375 -0.078125 0.78125 -0.140625q0.4375 -0.078125 0.90625 -0.125q0.484375 -0.046875 0.96875 -0.046875zm6.801285 0.59375q0.703125 -0.203125 1.8125153 -0.375q1.125 -0.171875 2.359375 -0.171875q1.25 0 2.078125 0.328125q0.828125 0.3125 1.3125 0.921875q0.484375 0.59375 0.6875 1.421875q0.21875 0.8125 0.21875 1.8125l0 5.546875l-2.78125 0l0 -5.203125q0 -1.34375 -0.359375 -1.90625q-0.359375 -0.5625 -1.328125 -0.5625q-0.296875 0 -0.640625 0.03125q-0.328125 0.03125 -0.59375 0.0625l0 7.578125l-2.7656403 0l0 -9.484375zm13.801041 7.484375q0.765625 0 1.078125 -0.140625q0.3125 -0.15625 0.3125 -0.578125q0 -0.34375 -0.40625 -0.59375q-0.40625 -0.25 -1.25 -0.5625q-0.65625 -0.25 -1.1875 -0.5q-0.53125 -0.265625 -0.90625 -0.625q-0.359375 -0.375 -0.578125 -0.875q-0.203125 -0.5 -0.203125 -1.21875q0 -1.375 1.03125 -2.171875q1.03125 -0.8125 2.8125 -0.8125q0.90625 0 1.71875 0.171875q0.828125 0.15625 1.3125 0.328125l-0.484375 2.171875q-0.484375 -0.171875 -1.0625 -0.296875q-0.5625 -0.125 -1.28125 -0.125q-1.296875 0 -1.296875 0.71875q0 0.171875 0.046875 0.3125q0.0625 0.125 0.21875 0.25q0.171875 0.109375 0.453125 0.25q0.296875 0.140625 0.75 0.3125q0.921875 0.328125 1.515625 0.65625q0.59375 0.328125 0.9375 0.71875q0.34375 0.375 0.484375 0.84375q0.140625 0.46875 0.140625 1.078125q0 1.453125 -1.09375 2.203125q-1.09375 0.75 -3.078125 0.75q-1.3125 0 -2.1875 -0.234375q-0.859375 -0.21875 -1.1875 -0.359375l0.453125 -2.265625q0.71875 0.28125 1.453125 0.4375q0.75 0.15625 1.484375 0.15625z" fill-rule="nonzero"/></g></svg>